<svg xmlns="http://www.w3.org/2000/svg" xmlns:xlink="http://www.w3.org/1999/xlink" width="40" zoomAndPan="magnify" viewBox="0 0 30 30.000001" height="40" preserveAspectRatio="xMidYMid meet" version="1.0"><defs><clipPath id="bea895f7d1"><path d="M 0.484375 0 L 29.515625 0 L 29.515625 29 L 0.484375 29 Z M 0.484375 0 " clip-rule="nonzero"/></clipPath></defs><g clip-path="url(#bea895f7d1)"><path fill="#00b1eb" d="M 28.96875 14.429688 C 29.097656 14.625 29.191406 14.835938 29.25 15.066406 C 29.308594 15.292969 29.328125 15.523438 29.308594 15.757812 C 29.285156 15.992188 29.226562 16.21875 29.128906 16.433594 C 29.035156 16.648438 28.902344 16.839844 28.742188 17.011719 C 28.492188 17.269531 28.324219 17.574219 28.234375 17.921875 C 28.144531 18.273438 28.144531 18.621094 28.238281 18.96875 C 28.296875 19.195312 28.316406 19.425781 28.296875 19.660156 C 28.277344 19.894531 28.222656 20.121094 28.125 20.335938 C 28.03125 20.550781 27.902344 20.742188 27.742188 20.914062 C 27.578125 21.085938 27.394531 21.226562 27.183594 21.335938 C 26.867188 21.5 26.609375 21.734375 26.410156 22.035156 C 26.210938 22.335938 26.097656 22.664062 26.070312 23.023438 C 26.054688 23.257812 26 23.484375 25.90625 23.699219 C 25.808594 23.914062 25.683594 24.109375 25.523438 24.28125 C 25.363281 24.453125 25.179688 24.59375 24.96875 24.703125 C 24.761719 24.8125 24.542969 24.886719 24.308594 24.921875 C 23.953125 24.972656 23.632812 25.109375 23.347656 25.328125 C 23.0625 25.550781 22.851562 25.824219 22.707031 26.15625 C 22.613281 26.371094 22.488281 26.566406 22.332031 26.738281 C 22.171875 26.914062 21.988281 27.054688 21.78125 27.167969 C 21.574219 27.277344 21.355469 27.351562 21.121094 27.386719 C 20.890625 27.421875 20.65625 27.421875 20.425781 27.378906 C 20.074219 27.3125 19.726562 27.335938 19.386719 27.453125 C 19.042969 27.566406 18.753906 27.757812 18.511719 28.027344 C 18.355469 28.199219 18.171875 28.34375 17.964844 28.457031 C 17.757812 28.570312 17.539062 28.644531 17.304688 28.679688 C 17.074219 28.71875 16.839844 28.71875 16.609375 28.675781 C 16.378906 28.636719 16.160156 28.558594 15.953125 28.441406 C 15.640625 28.265625 15.304688 28.175781 14.945312 28.171875 C 14.585938 28.171875 14.246094 28.257812 13.933594 28.433594 C 13.726562 28.546875 13.507812 28.621094 13.277344 28.660156 C 13.042969 28.699219 12.8125 28.699219 12.578125 28.660156 C 12.347656 28.621094 12.128906 28.542969 11.921875 28.429688 C 11.714844 28.316406 11.535156 28.167969 11.378906 27.992188 C 11.140625 27.726562 10.851562 27.53125 10.511719 27.414062 C 10.171875 27.292969 9.824219 27.265625 9.46875 27.328125 C 9.238281 27.371094 9.007812 27.371094 8.773438 27.332031 C 8.539062 27.296875 8.320312 27.21875 8.113281 27.105469 C 7.90625 26.992188 7.726562 26.851562 7.566406 26.675781 C 7.410156 26.5 7.285156 26.304688 7.195312 26.085938 C 7.054688 25.753906 6.84375 25.476562 6.5625 25.253906 C 6.28125 25.03125 5.960938 24.894531 5.605469 24.835938 C 5.371094 24.800781 5.152344 24.726562 4.945312 24.613281 C 4.738281 24.503906 4.554688 24.359375 4.398438 24.1875 C 4.238281 24.011719 4.113281 23.816406 4.019531 23.601562 C 3.929688 23.382812 3.875 23.160156 3.859375 22.921875 C 3.835938 22.566406 3.726562 22.234375 3.53125 21.933594 C 3.335938 21.628906 3.078125 21.394531 2.761719 21.226562 C 2.554688 21.117188 2.371094 20.972656 2.210938 20.800781 C 2.050781 20.628906 1.921875 20.433594 1.828125 20.21875 C 1.734375 20.003906 1.679688 19.777344 1.664062 19.542969 C 1.648438 19.308594 1.667969 19.074219 1.730469 18.847656 C 1.824219 18.5 1.828125 18.152344 1.742188 17.804688 C 1.65625 17.457031 1.488281 17.148438 1.242188 16.886719 C 1.082031 16.714844 0.957031 16.519531 0.859375 16.304688 C 0.765625 16.089844 0.707031 15.863281 0.691406 15.628906 C 0.671875 15.394531 0.691406 15.164062 0.753906 14.9375 C 0.8125 14.710938 0.910156 14.5 1.042969 14.304688 C 1.242188 14.003906 1.359375 13.679688 1.390625 13.320312 C 1.421875 12.960938 1.363281 12.617188 1.214844 12.289062 C 1.121094 12.074219 1.0625 11.851562 1.042969 11.617188 C 1.023438 11.382812 1.042969 11.148438 1.101562 10.921875 C 1.160156 10.695312 1.253906 10.484375 1.386719 10.285156 C 1.515625 10.089844 1.675781 9.921875 1.863281 9.78125 C 2.152344 9.566406 2.367188 9.292969 2.511719 8.964844 C 2.65625 8.636719 2.714844 8.292969 2.679688 7.933594 C 2.660156 7.699219 2.679688 7.46875 2.734375 7.238281 C 2.792969 7.011719 2.886719 6.800781 3.015625 6.605469 C 3.144531 6.40625 3.304688 6.238281 3.492188 6.09375 C 3.679688 5.953125 3.882812 5.84375 4.109375 5.773438 C 4.453125 5.664062 4.746094 5.476562 4.992188 5.210938 C 5.238281 4.949219 5.402344 4.640625 5.488281 4.289062 C 5.542969 4.0625 5.636719 3.847656 5.765625 3.652344 C 5.890625 3.453125 6.050781 3.285156 6.234375 3.140625 C 6.421875 2.996094 6.628906 2.886719 6.851562 2.8125 C 7.074219 2.738281 7.304688 2.703125 7.539062 2.707031 C 7.898438 2.714844 8.238281 2.632812 8.554688 2.460938 C 8.871094 2.292969 9.128906 2.058594 9.320312 1.753906 C 9.449219 1.554688 9.605469 1.382812 9.789062 1.238281 C 9.976562 1.09375 10.179688 0.984375 10.402344 0.910156 C 10.625 0.832031 10.855469 0.796875 11.089844 0.800781 C 11.324219 0.800781 11.554688 0.84375 11.773438 0.921875 C 12.113281 1.046875 12.460938 1.078125 12.816406 1.019531 C 13.167969 0.964844 13.488281 0.824219 13.769531 0.601562 C 13.953125 0.453125 14.160156 0.34375 14.382812 0.265625 C 14.601562 0.1875 14.832031 0.152344 15.066406 0.152344 C 15.304688 0.152344 15.53125 0.191406 15.753906 0.273438 C 15.976562 0.351562 16.175781 0.464844 16.359375 0.613281 C 16.640625 0.835938 16.957031 0.980469 17.3125 1.042969 C 17.667969 1.101562 18.015625 1.074219 18.351562 0.953125 C 18.574219 0.875 18.804688 0.835938 19.039062 0.835938 C 19.273438 0.835938 19.503906 0.875 19.726562 0.949219 C 19.949219 1.027344 20.152344 1.140625 20.335938 1.285156 C 20.519531 1.433594 20.675781 1.605469 20.800781 1.804688 C 20.992188 2.109375 21.246094 2.347656 21.5625 2.519531 C 21.875 2.695312 22.214844 2.777344 22.574219 2.777344 C 22.808594 2.773438 23.039062 2.8125 23.261719 2.886719 C 23.484375 2.960938 23.6875 3.074219 23.871094 3.21875 C 24.058594 3.363281 24.214844 3.535156 24.339844 3.734375 C 24.464844 3.933594 24.558594 4.148438 24.609375 4.375 C 24.691406 4.726562 24.855469 5.035156 25.097656 5.300781 C 25.339844 5.566406 25.632812 5.757812 25.976562 5.871094 C 26.199219 5.945312 26.402344 6.054688 26.589844 6.199219 C 26.773438 6.34375 26.933594 6.511719 27.058594 6.710938 C 27.1875 6.910156 27.277344 7.121094 27.335938 7.351562 C 27.390625 7.578125 27.40625 7.8125 27.382812 8.042969 C 27.347656 8.402344 27.398438 8.746094 27.542969 9.078125 C 27.6875 9.40625 27.902344 9.679688 28.1875 9.898438 C 28.371094 10.042969 28.53125 10.210938 28.660156 10.410156 C 28.789062 10.605469 28.882812 10.816406 28.9375 11.046875 C 28.996094 11.273438 29.011719 11.503906 28.988281 11.738281 C 28.96875 11.972656 28.910156 12.199219 28.808594 12.410156 C 28.660156 12.738281 28.597656 13.082031 28.625 13.441406 C 28.652344 13.800781 28.769531 14.128906 28.96875 14.429688 Z M 28.96875 14.429688 " fill-opacity="1" fill-rule="nonzero"/></g><path fill="#fffef4" d="M 13.578125 14.707031 L 10 11.125 L 7.0625 14.066406 L 13.578125 20.582031 L 16.519531 17.644531 L 22.960938 11.203125 L 20.023438 8.265625 Z M 13.578125 14.707031 " fill-opacity="1" fill-rule="nonzero"/></svg>